<svg viewBox="0 0 100 100" xmlns="http://www.w3.org/2000/svg">
  <defs>
    <linearGradient id="moon" x1="0.5" y1="0.05" x2="0.5" y2="0.95">
      <stop offset="0%" stop-color="#a8bcc9" stop-opacity="0.9"/>
      <stop offset="15%" stop-color="#c7b5d4"/>
      <stop offset="42%" stop-color="#eec5cf"/>
      <stop offset="68%" stop-color="#f5d486"/>
      <stop offset="90%" stop-color="#e8b85c"/>
      <stop offset="100%" stop-color="#c89540"/>
    </linearGradient>
    <radialGradient id="hl" cx="0.3" cy="0.35" r="0.55">
      <stop offset="0%" stop-color="#fff" stop-opacity="0.35"/>
      <stop offset="85%" stop-color="#fff" stop-opacity="0"/>
    </radialGradient>
    <radialGradient id="shade" cx="0.7" cy="0.65" r="0.45">
      <stop offset="0%" stop-color="#8a5a40" stop-opacity="0.18"/>
      <stop offset="85%" stop-color="#8a5a40" stop-opacity="0"/>
    </radialGradient>
  </defs>
  <path d="M 38 12 C 10 22 6 78 38 92 C 78 84 70 50 56 44 C 76 36 78 18 38 12 Z" fill="url(#moon)"/>
  <path d="M 38 12 C 10 22 6 78 38 92 C 78 84 70 50 56 44 C 76 36 78 18 38 12 Z" fill="url(#hl)"/>
  <path d="M 38 12 C 10 22 6 78 38 92 C 78 84 70 50 56 44 C 76 36 78 18 38 12 Z" fill="url(#shade)"/>
  <path d="M 76 22 L 78.5 28 L 85 30 L 78.5 32 L 76 38 L 73.5 32 L 67 30 L 73.5 28 Z" fill="#1e3a8a"/>
  <path d="M 66 46 L 67.5 49.5 L 71 51 L 67.5 52.5 L 66 56 L 64.5 52.5 L 61 51 L 64.5 49.5 Z" fill="#a3c87a"/>
  <path d="M 82 58 L 83.5 62.5 L 88 64 L 83.5 65.5 L 82 70 L 80.5 65.5 L 76 64 L 80.5 62.5 Z" fill="#7ec8a8"/>
</svg>
